<svg xmlns="http://www.w3.org/2000/svg" viewBox="0 0 76.17 26.02"><defs><style>.cls-1{fill:#603913;}.cls-2{fill:#8b5e3c;}</style></defs><title>Asset 2</title><g id="Layer_2" data-name="Layer 2"><g id="Layer_1-2" data-name="Layer 1"><path class="cls-1" d="M.43,14.08V9.59H.94Q1.82,14,5.09,14a3,3,0,0,0,2.28-.84,2.65,2.65,0,0,0,.81-1.88,2.39,2.39,0,0,0-.71-1.76A8.78,8.78,0,0,0,4.87,8,19.08,19.08,0,0,1,2.34,6.73,3.85,3.85,0,0,1,1,5.32,3.75,3.75,0,0,1,.53,3.48,3.31,3.31,0,0,1,1.56,1,3.63,3.63,0,0,1,4.18,0,4.78,4.78,0,0,1,5.85.29,4.26,4.26,0,0,1,7.46,1.48,2.22,2.22,0,0,0,8,.26h.45V3.91H8A4.91,4.91,0,0,0,6.61,1.4,3.29,3.29,0,0,0,4.31.48a2.29,2.29,0,0,0-1.83.67A2.21,2.21,0,0,0,1.9,2.64a2.13,2.13,0,0,0,.73,1.64A10,10,0,0,0,5.23,5.8,27.19,27.19,0,0,1,7.85,7.09,3.65,3.65,0,0,1,9.17,8.44a4,4,0,0,1,.5,2,3.82,3.82,0,0,1-1.2,2.91,4.47,4.47,0,0,1-3.19,1.12,4.87,4.87,0,0,1-3.83-1.76,3.51,3.51,0,0,0-.5,1.36Z"/><path class="cls-1" d="M19.79,5.79v5.53q0,1.38,0,1.73a.69.69,0,0,0,.3.53,1.81,1.81,0,0,0,.94.17v.47a6.43,6.43,0,0,0-2.29.33h-.12a4.3,4.3,0,0,1-.35-2,4.58,4.58,0,0,1-1.44,1.47,3.36,3.36,0,0,1-1.79.49,2.86,2.86,0,0,1-1.49-.39,2.08,2.08,0,0,1-.89-.94,4.43,4.43,0,0,1-.24-1.68V8.68a17.19,17.19,0,0,0-.05-1.79.64.64,0,0,0-.33-.48,2.25,2.25,0,0,0-1-.15V5.79H14v5.85a5.47,5.47,0,0,0,.1,1.26,1.22,1.22,0,0,0,.53.68,1.67,1.67,0,0,0,1,.29,2.55,2.55,0,0,0,1.51-.52,2.87,2.87,0,0,0,1-1.1,4.17,4.17,0,0,0,.26-1.66V8.68q0-1.38,0-1.68A.82.82,0,0,0,18,6.48a1.46,1.46,0,0,0-1-.22h-.22V5.79Z"/><path class="cls-1" d="M24.52,5.45h.28a5.6,5.6,0,0,1,.27,1.74,5.39,5.39,0,0,1,1.55-1.31,3.57,3.57,0,0,1,1.7-.43A3,3,0,0,1,30,5.87a1.9,1.9,0,0,1,.83,1A6.56,6.56,0,0,1,31,8.69v2.64A16.89,16.89,0,0,0,31,13.11a.65.65,0,0,0,.32.48,2.18,2.18,0,0,0,1,.16v.47H28.05v-.47h.2a1.49,1.49,0,0,0,1-.22.8.8,0,0,0,.26-.5q0-.29,0-1.7V8.61a7.19,7.19,0,0,0-.1-1.43,1.34,1.34,0,0,0-.53-.76,1.73,1.73,0,0,0-1.09-.33,2.58,2.58,0,0,0-1.44.45,4.77,4.77,0,0,0-1.29,1.34v3.44a15.27,15.27,0,0,0,.06,1.78.66.66,0,0,0,.33.48,2.22,2.22,0,0,0,1,.16v.47H22.2v-.47a2.36,2.36,0,0,0,1-.14.63.63,0,0,0,.34-.44,13.25,13.25,0,0,0,.07-1.84V8.81A15.5,15.5,0,0,0,23.55,7a.66.66,0,0,0-.33-.47,2.21,2.21,0,0,0-1-.16V5.92A13.24,13.24,0,0,0,24.52,5.45Z"/><path class="cls-1" d="M33.67,14.49V11.72h.4q.7,2.4,2.5,2.4a1.42,1.42,0,0,0,1.17-.47,1.61,1.61,0,0,0,.39-1,1.48,1.48,0,0,0-.41-1.08,6.65,6.65,0,0,0-1.64-1,6.26,6.26,0,0,1-1.83-1.24,2.08,2.08,0,0,1-.56-1.47,2.53,2.53,0,0,1,.6-1.59A2,2,0,0,1,36,5.45a2.24,2.24,0,0,1,1.82.9,2.68,2.68,0,0,0,.4-.75h.38V8.2h-.38a3.56,3.56,0,0,0-.8-1.61A1.81,1.81,0,0,0,36,5.91a1.35,1.35,0,0,0-1,.38,1.22,1.22,0,0,0-.38.89,1.28,1.28,0,0,0,.42,1,5.68,5.68,0,0,0,1.58.94,4.48,4.48,0,0,1,2.14,1.54,3.2,3.2,0,0,1,.39,1.46,2.36,2.36,0,0,1-.73,1.79,2.55,2.55,0,0,1-1.83.69,2.78,2.78,0,0,1-2.07-1,2.33,2.33,0,0,0-.45.89Z"/><path class="cls-1" d="M43.29,7.18a4.35,4.35,0,0,1,1.39-1.3,3.36,3.36,0,0,1,1.68-.43,3.17,3.17,0,0,1,1.72.43A2,2,0,0,1,49,6.94,7.28,7.28,0,0,1,49.18,9v2.33a15.81,15.81,0,0,0,.06,1.8.63.63,0,0,0,.33.47,2.42,2.42,0,0,0,1,.15v.47H46.24v-.47h.2a1.48,1.48,0,0,0,1-.22.84.84,0,0,0,.26-.51q0-.29,0-1.69V8.79a7.13,7.13,0,0,0-.12-1.55A1.43,1.43,0,0,0,47,6.4a1.91,1.91,0,0,0-1.15-.33,2.37,2.37,0,0,0-1.44.47,4,4,0,0,0-1.12,1.41v3.38q0,1.42,0,1.75a.67.67,0,0,0,.31.5,2,2,0,0,0,1,.17v.47H40.34v-.47h.22a1.49,1.49,0,0,0,1-.21.82.82,0,0,0,.26-.5q0-.29,0-1.7V2.92a3.33,3.33,0,0,0-.24-1.62Q41.33,1,40.42,1V.49A7.08,7.08,0,0,0,43.07.06h.22Z"/><path class="cls-1" d="M54.45,5.45v5.88q0,1.35,0,1.7a.73.73,0,0,0,.3.54,1.65,1.65,0,0,0,.92.19h.22v.47H51.38v-.47h.35a1.47,1.47,0,0,0,1-.21.82.82,0,0,0,.26-.5q0-.29,0-1.7V8.77A6.59,6.59,0,0,0,52.84,7a.68.68,0,0,0-.37-.41,2.73,2.73,0,0,0-.81-.08h-.28V6a12.61,12.61,0,0,0,2.84-.55Zm-2-4.3a1.05,1.05,0,0,1,.31-.76,1,1,0,0,1,.76-.32,1,1,0,0,1,.75.32,1.06,1.06,0,0,1,.31.76,1.07,1.07,0,0,1-.31.77,1,1,0,0,1-.75.32,1,1,0,0,1-.76-.32A1.06,1.06,0,0,1,52.46,1.14Z"/><path class="cls-1" d="M59.23,5.45h.28a5.6,5.6,0,0,1,.27,1.74,5.39,5.39,0,0,1,1.55-1.31A3.57,3.57,0,0,1,63,5.45a3,3,0,0,1,1.65.42,1.9,1.9,0,0,1,.83,1,6.56,6.56,0,0,1,.18,1.79v2.64a16.89,16.89,0,0,0,.05,1.78.65.65,0,0,0,.32.48,2.18,2.18,0,0,0,1,.16v.47H62.76v-.47H63a1.49,1.49,0,0,0,1-.22.8.8,0,0,0,.26-.5q0-.29,0-1.7V8.61a7.19,7.19,0,0,0-.1-1.43,1.34,1.34,0,0,0-.53-.76A1.73,1.73,0,0,0,62.5,6.1a2.58,2.58,0,0,0-1.44.45,4.77,4.77,0,0,0-1.29,1.34v3.44a15.27,15.27,0,0,0,.06,1.78.66.66,0,0,0,.33.48,2.22,2.22,0,0,0,1,.16v.47H56.91v-.47a2.36,2.36,0,0,0,1-.14.63.63,0,0,0,.34-.44,13.25,13.25,0,0,0,.07-1.84V8.81A15.5,15.5,0,0,0,58.25,7a.66.66,0,0,0-.33-.47,2.21,2.21,0,0,0-1-.16V5.92A13.24,13.24,0,0,0,59.23,5.45Z"/><path class="cls-1" d="M75.95,8.64H70.07q0,.61,0,.91a6.42,6.42,0,0,0,.7,3.34A2.28,2.28,0,0,0,72.8,14a2.72,2.72,0,0,0,2.66-1.68h.49A2.88,2.88,0,0,1,74.64,14a4.09,4.09,0,0,1-4.15.05,4.32,4.32,0,0,1-1.56-1.53,4.49,4.49,0,0,1-.61-2.4,4.82,4.82,0,0,1,1.17-3.32,3.76,3.76,0,0,1,2.93-1.32,3.27,3.27,0,0,1,2.56,1A3.45,3.45,0,0,1,75.95,8.64Zm-1.8-.41a3.33,3.33,0,0,0,0-.42,1.77,1.77,0,0,0-1.83-1.9q-1.87,0-2.23,2.33Z"/><path class="cls-2" d="M.18,19.91H0l0-1.3H5.27l0,1.3H5.13a2.07,2.07,0,0,0-.25-.77.66.66,0,0,0-.34-.29,2.52,2.52,0,0,0-.63-.05H3v3.81a7,7,0,0,0,0,.83.42.42,0,0,0,.16.29.9.9,0,0,0,.49.1H4V24H1.3v-.18h.28a.93.93,0,0,0,.48-.09.41.41,0,0,0,.17-.27,6,6,0,0,0,0-.86V18.79h-.8a3.16,3.16,0,0,0-.7,0,.63.63,0,0,0-.34.3A2.12,2.12,0,0,0,.18,19.91Z"/><path class="cls-2" d="M6.9,21.29a1.68,1.68,0,0,1,.54-.5,1.31,1.31,0,0,1,.65-.17,1.23,1.23,0,0,1,.67.17.77.77,0,0,1,.34.41,2.84,2.84,0,0,1,.08.8v.9a6.1,6.1,0,0,0,0,.7.24.24,0,0,0,.13.18.93.93,0,0,0,.4.06V24H8v-.18h.08a.58.58,0,0,0,.38-.08.33.33,0,0,0,.1-.2q0-.11,0-.66v-1a2.73,2.73,0,0,0,0-.6A.55.55,0,0,0,8.34,21a.74.74,0,0,0-.44-.13.92.92,0,0,0-.56.18,1.52,1.52,0,0,0-.43.54v1.31q0,.55,0,.68a.26.26,0,0,0,.12.19.76.76,0,0,0,.38.07V24H5.76v-.18h.08a.57.57,0,0,0,.37-.08.31.31,0,0,0,.1-.2q0-.11,0-.66V19.64A1.29,1.29,0,0,0,6.24,19c-.06-.09-.21-.13-.45-.13V18.7a2.73,2.73,0,0,0,1-.17H6.9Z"/><path class="cls-2" d="M13.5,23.42h.15q0,.68-.67.68a.61.61,0,0,1-.43-.14.71.71,0,0,1-.21-.43,4.17,4.17,0,0,1-.73.43,1.5,1.5,0,0,1-.59.14.89.89,0,0,1-.57-.19.62.62,0,0,1-.24-.51.89.89,0,0,1,.4-.72,5,5,0,0,1,1.11-.6l.62-.25v-.16a1.94,1.94,0,0,0,0-.49.51.51,0,0,0-.23-.27.87.87,0,0,0-.48-.12q-.6,0-.67.4t-.33.41c-.16,0-.24-.08-.24-.23a.7.7,0,0,1,.32-.49,1.59,1.59,0,0,1,1-.26,1.59,1.59,0,0,1,.79.16.83.83,0,0,1,.37.36,1.63,1.63,0,0,1,.09.62v1.32a2.25,2.25,0,0,0,0,.59.2.2,0,0,0,.21.13C13.35,23.81,13.46,23.68,13.5,23.42ZM12.34,22l-.43.18q-1,.42-1,1.05a.6.6,0,0,0,.13.4.43.43,0,0,0,.34.15,1,1,0,0,0,.43-.12,3.19,3.19,0,0,0,.55-.37Z"/><path class="cls-2" d="M15,20.62v2.28q0,.52,0,.66a.28.28,0,0,0,.12.21.63.63,0,0,0,.35.07h.08V24H13.86v-.18H14a.57.57,0,0,0,.37-.08.32.32,0,0,0,.1-.2q0-.11,0-.66v-1a2.55,2.55,0,0,0-.05-.7.26.26,0,0,0-.14-.16A1,1,0,0,0,14,21h-.11v-.18a4.87,4.87,0,0,0,1.1-.21ZM14.28,19a.41.41,0,0,1,.12-.29.4.4,0,0,1,.29-.12.39.39,0,0,1,.29.12.41.41,0,0,1,.12.29.42.42,0,0,1-.12.3.39.39,0,0,1-.29.12.4.4,0,0,1-.29-.12A.41.41,0,0,1,14.28,19Z"/><path class="cls-2" d="M21.6,23.08l2-4.47h1.66v.18H25a1.31,1.31,0,0,0-.52.07.35.35,0,0,0-.17.25,5.13,5.13,0,0,0,0,.85v2.65a6.62,6.62,0,0,0,0,.83.43.43,0,0,0,.16.29.9.9,0,0,0,.5.1h.24V24H22.64v-.18h.19a.92.92,0,0,0,.48-.09.41.41,0,0,0,.17-.27,6,6,0,0,0,0-.86V19.17L21.38,24h-.19L19,19.17v3.16a6.38,6.38,0,0,0,0,.88.68.68,0,0,0,.25.41,1,1,0,0,0,.58.2V24H18v-.18a1,1,0,0,0,.56-.19.68.68,0,0,0,.26-.42,5.69,5.69,0,0,0,0-.92V20a5.47,5.47,0,0,0,0-.83.37.37,0,0,0-.16-.26,1.24,1.24,0,0,0-.53-.07H18v-.18h1.65Z"/><path class="cls-2" d="M29,23.42h.15q0,.68-.67.68A.61.61,0,0,1,28,24a.71.71,0,0,1-.21-.43,4.17,4.17,0,0,1-.73.43,1.5,1.5,0,0,1-.59.14.89.89,0,0,1-.57-.19.62.62,0,0,1-.24-.51.89.89,0,0,1,.4-.72,5,5,0,0,1,1.11-.6l.62-.25v-.16a1.94,1.94,0,0,0,0-.49.51.51,0,0,0-.23-.27.87.87,0,0,0-.48-.12q-.6,0-.67.4t-.33.41c-.16,0-.24-.08-.24-.23a.7.7,0,0,1,.32-.49,2,2,0,0,1,1.79-.1.83.83,0,0,1,.37.36,1.63,1.63,0,0,1,.09.62v1.32a2.25,2.25,0,0,0,0,.59.2.2,0,0,0,.21.13C28.82,23.81,28.93,23.68,29,23.42ZM27.82,22l-.43.18q-1,.42-1,1.05a.6.6,0,0,0,.13.4.43.43,0,0,0,.34.15,1,1,0,0,0,.43-.12,3.19,3.19,0,0,0,.55-.37Z"/><path class="cls-2" d="M29.54,24.12V23h.16q.27.93,1,.93a.55.55,0,0,0,.45-.18.62.62,0,0,0,.15-.4A.58.58,0,0,0,31.1,23a2.59,2.59,0,0,0-.63-.39,2.42,2.42,0,0,1-.71-.48.8.8,0,0,1-.21-.57,1,1,0,0,1,.23-.62.78.78,0,0,1,.65-.29.87.87,0,0,1,.71.35,1,1,0,0,0,.16-.29h.15v1h-.15a1.37,1.37,0,0,0-.31-.62.7.7,0,0,0-.54-.26.52.52,0,0,0-.39.15.47.47,0,0,0-.15.34.49.49,0,0,0,.16.37,2.19,2.19,0,0,0,.61.36,1.73,1.73,0,0,1,.83.6,1.24,1.24,0,0,1,.15.57.91.91,0,0,1-.28.69,1,1,0,0,1-.71.27,1.08,1.08,0,0,1-.8-.37.9.9,0,0,0-.17.34Z"/><path class="cls-2" d="M32.26,24.12V23h.16q.27.93,1,.93a.55.55,0,0,0,.45-.18.62.62,0,0,0,.15-.4.58.58,0,0,0-.16-.42,2.59,2.59,0,0,0-.63-.39,2.42,2.42,0,0,1-.71-.48.8.8,0,0,1-.21-.57,1,1,0,0,1,.23-.62.78.78,0,0,1,.65-.29.87.87,0,0,1,.71.35,1,1,0,0,0,.16-.29h.15v1H34a1.37,1.37,0,0,0-.31-.62.7.7,0,0,0-.54-.26.52.52,0,0,0-.39.15.47.47,0,0,0-.15.34.49.49,0,0,0,.16.37,2.19,2.19,0,0,0,.61.36,1.73,1.73,0,0,1,.83.6,1.24,1.24,0,0,1,.15.57.91.91,0,0,1-.28.69,1,1,0,0,1-.71.27,1.08,1.08,0,0,1-.8-.37.9.9,0,0,0-.17.34Z"/><path class="cls-2" d="M38.25,23.42h.15q0,.68-.67.68A.61.61,0,0,1,37.3,24a.71.71,0,0,1-.21-.43,4.17,4.17,0,0,1-.73.43,1.5,1.5,0,0,1-.59.14.89.89,0,0,1-.57-.19A.62.62,0,0,1,35,23.4a.89.89,0,0,1,.4-.72,5,5,0,0,1,1.11-.6l.62-.25v-.16a1.94,1.94,0,0,0,0-.49.51.51,0,0,0-.23-.27.87.87,0,0,0-.48-.12q-.6,0-.67.4t-.33.41c-.16,0-.24-.08-.24-.23a.7.7,0,0,1,.32-.49,2,2,0,0,1,1.79-.1.83.83,0,0,1,.37.36,1.63,1.63,0,0,1,.09.62v1.32a2.25,2.25,0,0,0,0,.59.2.2,0,0,0,.21.13C38.09,23.81,38.2,23.68,38.25,23.42ZM37.09,22l-.43.18q-1,.42-1,1.05a.6.6,0,0,0,.13.4.43.43,0,0,0,.34.15,1,1,0,0,0,.43-.12,3.19,3.19,0,0,0,.55-.37Z"/><path class="cls-2" d="M41.28,21a.94.94,0,0,1,.69-.38.41.41,0,0,1,.3.1.31.31,0,0,1,.11.23c0,.18-.08.26-.24.26a.27.27,0,0,1-.23-.16c-.06-.1-.12-.15-.18-.15a.49.49,0,0,0-.33.21,1.27,1.27,0,0,1,.21.69,1.2,1.2,0,0,1-.34.85,1.6,1.6,0,0,1-1.16.4q-.85,0-.84.34c0,.1.06.17.19.21a3.61,3.61,0,0,0,.79.1,5.48,5.48,0,0,1,1,.12,1,1,0,0,1,.35,1.86,2,2,0,0,1-1.24.32,2.17,2.17,0,0,1-1.19-.29.84.84,0,0,1-.45-.73.61.61,0,0,1,.13-.4.44.44,0,0,1,.36-.16l.12,0a.84.84,0,0,0-.25.57.68.68,0,0,0,.33.58,1.72,1.72,0,0,0,1,.23,1.53,1.53,0,0,0,.91-.23.71.71,0,0,0,.33-.6.59.59,0,0,0-.29-.56,2.58,2.58,0,0,0-1-.19,2.44,2.44,0,0,1-1.11-.21.51.51,0,0,1-.25-.44q0-.52.73-.66a1.71,1.71,0,0,1-.57-.51,1.13,1.13,0,0,1-.19-.64,1.09,1.09,0,0,1,.39-.85,1.36,1.36,0,0,1,.93-.35A1.41,1.41,0,0,1,41.28,21Zm-1.79.87a1.12,1.12,0,0,0,.21.75.69.69,0,0,0,.54.24.68.68,0,0,0,.52-.24,1.21,1.21,0,0,0,.22-.82,1.12,1.12,0,0,0-.23-.81.73.73,0,0,0-.52-.22.62.62,0,0,0-.55.27A1.51,1.51,0,0,0,39.48,21.91Z"/><path class="cls-2" d="M45.56,21.85H43.29c0,.16,0,.27,0,.35a2.49,2.49,0,0,0,.27,1.29.89.89,0,0,0,.8.43,1.05,1.05,0,0,0,1-.65h.19a1.12,1.12,0,0,1-.51.64,1.59,1.59,0,0,1-1.61,0,1.68,1.68,0,0,1-.6-.59,1.74,1.74,0,0,1-.24-.93,1.86,1.86,0,0,1,.46-1.29,1.45,1.45,0,0,1,1.14-.51,1.27,1.27,0,0,1,1,.39A1.34,1.34,0,0,1,45.56,21.85Zm-.7-.16a1.31,1.31,0,0,0,0-.16.69.69,0,0,0-.71-.74q-.73,0-.87.9Z"/><path class="cls-2" d="M48.31,19.91h-.18l0-1.3H53.4l0,1.3h-.17a2.07,2.07,0,0,0-.25-.77.66.66,0,0,0-.34-.29,2.52,2.52,0,0,0-.63-.05h-.87v3.81a7,7,0,0,0,0,.83.42.42,0,0,0,.16.29.9.9,0,0,0,.49.1h.26V24H49.42v-.18h.28a.93.93,0,0,0,.48-.09.41.41,0,0,0,.17-.27,6,6,0,0,0,0-.86V18.79h-.8a3.16,3.16,0,0,0-.7,0,.63.63,0,0,0-.34.3A2.12,2.12,0,0,0,48.31,19.91Z"/><path class="cls-2" d="M55,21.29a1.68,1.68,0,0,1,.54-.5,1.31,1.31,0,0,1,.65-.17,1.23,1.23,0,0,1,.67.17.77.77,0,0,1,.34.41,2.84,2.84,0,0,1,.08.8v.9a6.1,6.1,0,0,0,0,.7.24.24,0,0,0,.13.18.93.93,0,0,0,.4.06V24H56.17v-.18h.08a.58.58,0,0,0,.38-.08.33.33,0,0,0,.1-.2q0-.11,0-.66v-1a2.73,2.73,0,0,0,0-.6.55.55,0,0,0-.23-.32.74.74,0,0,0-.44-.13.92.92,0,0,0-.56.18,1.52,1.52,0,0,0-.43.54v1.31q0,.55,0,.68a.26.26,0,0,0,.12.19.76.76,0,0,0,.38.07V24H53.88v-.18H54a.57.57,0,0,0,.37-.08.31.31,0,0,0,.1-.2q0-.11,0-.66V19.64a1.29,1.29,0,0,0-.09-.63c-.06-.09-.21-.13-.45-.13V18.7a2.73,2.73,0,0,0,1-.17H55Z"/><path class="cls-2" d="M61.29,21.85H59c0,.16,0,.27,0,.35a2.49,2.49,0,0,0,.27,1.29.89.89,0,0,0,.8.43,1.05,1.05,0,0,0,1-.65h.19a1.12,1.12,0,0,1-.51.64,1.59,1.59,0,0,1-1.61,0,1.68,1.68,0,0,1-.6-.59,1.74,1.74,0,0,1-.24-.93,1.86,1.86,0,0,1,.46-1.29,1.45,1.45,0,0,1,1.14-.51,1.27,1.27,0,0,1,1,.39A1.34,1.34,0,0,1,61.29,21.85Zm-.7-.16a1.31,1.31,0,0,0,0-.16.69.69,0,0,0-.71-.74q-.73,0-.87.9Z"/><path class="cls-2" d="M63,21.45a1.36,1.36,0,0,1,.44-.59,1,1,0,0,1,.6-.24.54.54,0,0,1,.41.16.49.49,0,0,1,.15.33.28.28,0,0,1-.08.2.25.25,0,0,1-.19.08q-.2,0-.3-.29c0-.13-.12-.2-.22-.2a.66.66,0,0,0-.41.23,1.08,1.08,0,0,0-.31.48,2.73,2.73,0,0,0-.07.69v.58q0,.52,0,.66a.28.28,0,0,0,.11.21.64.64,0,0,0,.35.07h.11V24H61.85v-.18h.08a.66.66,0,0,0,.34-.07.26.26,0,0,0,.12-.19,6.22,6.22,0,0,0,0-.69V22q0-.53,0-.66a.28.28,0,0,0-.11-.21.63.63,0,0,0-.35-.07h-.08v-.18a5.56,5.56,0,0,0,1-.24A2.64,2.64,0,0,1,63,21.45Z"/><path class="cls-2" d="M68.17,23.42h.15q0,.68-.67.68a.61.61,0,0,1-.43-.14.71.71,0,0,1-.21-.43,4.17,4.17,0,0,1-.73.43,1.5,1.5,0,0,1-.59.14.89.89,0,0,1-.57-.19.62.62,0,0,1-.24-.51.89.89,0,0,1,.4-.72,5,5,0,0,1,1.11-.6l.62-.25v-.16a1.94,1.94,0,0,0,0-.49.51.51,0,0,0-.23-.27.87.87,0,0,0-.48-.12q-.6,0-.67.4t-.33.41c-.16,0-.24-.08-.24-.23a.7.7,0,0,1,.32-.49,2,2,0,0,1,1.79-.1.83.83,0,0,1,.37.36,1.63,1.63,0,0,1,.09.62v1.32a2.25,2.25,0,0,0,0,.59.2.2,0,0,0,.21.13C68,23.81,68.13,23.68,68.17,23.42ZM67,22l-.43.18q-1,.42-1,1.05a.6.6,0,0,0,.13.4.43.43,0,0,0,.34.15,1,1,0,0,0,.43-.12,3.19,3.19,0,0,0,.55-.37Z"/><path class="cls-2" d="M69.41,20.62h.11a1.88,1.88,0,0,1,.07.54,1.75,1.75,0,0,1,.55-.4,1.55,1.55,0,0,1,1.75.34,1.76,1.76,0,0,1,.45,1.26,1.87,1.87,0,0,1-.45,1.28,1.51,1.51,0,0,1-1.19.51,1.43,1.43,0,0,1-.58-.12,1.8,1.8,0,0,1-.52-.36V24.9a5.87,5.87,0,0,0,0,.69.26.26,0,0,0,.13.19.84.84,0,0,0,.39.06V26H68.41v-.18h.12a.56.56,0,0,0,.37-.08.31.31,0,0,0,.1-.2q0-.11,0-.66v-3c0-.35,0-.57,0-.66a.28.28,0,0,0-.11-.21.64.64,0,0,0-.35-.07h-.12v-.18A6.69,6.69,0,0,0,69.41,20.62Zm.17,2.78a1.61,1.61,0,0,0,.46.4,1,1,0,0,0,.51.13,1,1,0,0,0,.79-.39,1.86,1.86,0,0,0,.33-1.23,1.61,1.61,0,0,0-.32-1.1,1,1,0,0,0-.77-.36,1,1,0,0,0-.52.14,1.63,1.63,0,0,0-.47.42Z"/><path class="cls-2" d="M74.54,23.4l.76-1.81a3.09,3.09,0,0,0,.16-.44q0-.2-.44-.21v-.18h1.15v.18a.56.56,0,0,0-.39.14,2.11,2.11,0,0,0-.31.57L74,25.16a2.65,2.65,0,0,1-.37.68.47.47,0,0,1-.35.18c-.17,0-.26-.08-.26-.24s.14-.33.41-.46a1.31,1.31,0,0,0,.33-.18.8.8,0,0,0,.16-.27l.31-.78L73,21.46a1.45,1.45,0,0,0-.27-.44.57.57,0,0,0-.37-.09v-.18h1.5v.18c-.26,0-.39.06-.39.16a1.74,1.74,0,0,0,.16.39Z"/></g></g></svg>